<svg width="62" height="59" viewBox="0 0 62 59" fill="none" xmlns="http://www.w3.org/2000/svg">
<g id="Icon">
<path id="Vector" d="M58.0792 46.3417V43.55L61.1501 41.3167C61.4292 41.0375 61.7084 40.7583 61.4292 40.4792L58.6376 35.7333C58.6376 35.4542 58.0792 35.4542 57.8001 35.4542L54.4501 36.85C53.6126 36.2917 52.7751 35.7333 51.9376 35.4542L51.3792 31.825C51.3792 31.5458 51.1001 31.2667 50.8209 31.2667H45.2376C44.6792 31.2667 44.4001 31.5458 44.4001 31.825L43.8417 35.4542C43.0042 36.0125 42.4459 36.2917 41.6084 36.85L38.2584 35.4542C37.9792 35.4542 37.7001 35.4542 37.4209 35.7333L34.6292 40.4792C34.6292 40.7583 34.6292 41.0375 34.9084 41.3167L37.9792 43.55V46.3417L34.9084 48.575C34.6292 48.8542 34.3501 49.1333 34.6292 49.4125L37.4209 54.1583C37.7001 54.4375 37.9792 54.4375 38.2584 54.4375L41.6084 53.0417C42.1667 53.6 43.0042 54.1583 43.8417 54.4375L44.4001 58.0667C44.6792 58.3458 44.9584 58.625 45.2376 58.625H50.8209C51.1001 58.625 51.3792 58.3458 51.3792 58.0667L51.9376 54.4375C52.7751 53.8792 53.3334 53.6 54.1709 53.0417L57.5209 54.1583C57.8001 54.1583 58.0792 54.1583 58.3584 53.8792L61.1501 49.1333C61.4292 48.8542 61.4292 48.575 61.1501 48.575L58.0792 46.3417ZM47.7501 48.8542C45.5167 48.8542 43.5626 46.9 43.5626 44.6667C43.5626 42.4333 45.5167 40.4792 47.7501 40.4792C49.9834 40.4792 51.9376 42.4333 51.9376 44.6667C51.9376 46.9 49.9834 48.8542 47.7501 48.8542ZM31.8376 55.8333H5.87508C2.80425 55.8333 0.291748 53.3208 0.291748 50.25V5.58333C0.291748 2.5125 2.80425 0 5.87508 0H56.1251C59.1959 0 61.7084 2.5125 61.7084 5.58333V30.9875C60.0334 29.3125 58.0792 27.9167 56.1251 27.0792V11.1667H5.87508V50.25H29.0459C29.6042 52.2042 30.4417 54.1583 31.8376 55.8333Z" fill="#330099"/>
</g>
</svg>
