<svg width="67" height="47" viewBox="0 0 67 47" fill="none" xmlns="http://www.w3.org/2000/svg">
<g id="Vector">
<path id="Vector_2" d="M54.4375 0.5625C52.1566 2.74545 49.4434 4.42589 46.4729 5.49537C43.3406 6.04812 34.6725 2.02812 30.4013 6.13187C29.6894 6.84375 28.81 7.55563 27.8888 8.2675C25.8787 7.38813 22.78 6.04812 20.5188 4.75C18.2575 3.45187 12.5625 0.5625 12.5625 0.5625L0 15.2188C0 15.2188 3.09875 19.4062 5.025 22.17C6.28125 24.0125 7.83062 26.8181 8.83562 28.7025L7.41187 30.3775C7.07092 31.0548 6.94825 31.8211 7.06073 32.571C7.17322 33.3209 7.51533 34.0175 8.04 34.565C8.6456 35.019 9.38245 35.2637 10.1393 35.2622C10.8962 35.2607 11.6321 35.0131 12.2359 34.5566C12.012 34.8188 11.8426 35.1228 11.7375 35.4511C11.6323 35.7795 11.5937 36.1254 11.6237 36.4688C11.6537 36.8122 11.7518 37.1462 11.9123 37.4513C12.0727 37.7564 12.2924 38.0265 12.5583 38.2458C13.1978 38.6193 13.9253 38.8154 14.6658 38.8139C15.4063 38.8124 16.133 38.6134 16.7709 38.2374C16.2925 38.8338 16.0307 39.5749 16.0284 40.3395C16.0261 41.104 16.2835 41.8467 16.7584 42.4459C17.3757 42.6596 18.034 42.7277 18.6819 42.6449C19.3299 42.5621 19.9499 42.3306 20.4936 41.9685C20.2228 42.6096 20.1526 43.3178 20.2924 43.9995C20.4322 44.6813 20.7754 45.3047 21.2767 45.7875C21.9848 46.1022 22.7613 46.2319 23.5332 46.1645C24.3052 46.0971 25.0474 45.8348 25.6903 45.4023L27.8511 43.4467C29.8276 45.4148 32.5536 46.6334 35.5644 46.6334L35.8199 46.6292C36.8121 46.5445 37.7626 46.1915 38.5696 45.608C39.3765 45.0246 40.0096 44.2326 40.401 43.3169C41.0124 43.5514 41.7075 43.7105 42.4445 43.7105C43.4327 43.7105 44.3498 43.4258 45.1245 42.9358C47.5742 41.3153 46.9879 40.059 46.9879 40.059C47.859 40.434 48.8266 40.5229 49.7514 40.3129C50.6762 40.103 51.5106 39.605 52.1344 38.8907C52.7826 38.2276 53.1913 37.3673 53.296 36.4459C53.4007 35.5245 53.1953 34.5945 52.7122 33.8029C52.7387 33.8187 52.7694 33.826 52.8002 33.8238C54.5631 33.8238 56.0957 32.8523 56.8956 31.4202C57.2892 30.4023 57.4221 29.3022 57.2825 28.2199C57.1428 27.1376 56.7349 26.1073 56.0957 25.2227L56.1083 25.2436C59.5421 24.5736 59.4164 22.8568 61.0914 20.3442C62.6774 18.2939 64.6508 16.5752 66.8995 15.2857L54.4375 0.5625ZM54.2281 30.1263C52.3856 31.9688 50.9619 31.1731 47.8213 28.7862C44.6806 26.3994 38.4412 21.9188 38.4412 21.9188C38.6967 23.1959 39.2871 24.3056 40.1204 25.1892C41.4563 26.6925 45.4344 30.1262 47.3188 31.885C48.4912 32.9737 51.5063 35.1512 49.7475 36.8262C47.9888 38.5013 46.6069 36.8263 43.7175 34.4813C40.8281 32.1363 34.3794 26.3575 34.3794 26.3575C34.3438 26.9114 34.4263 27.4666 34.6212 27.9863C34.8161 28.5061 35.119 28.9785 35.51 29.3725C36.2219 30.21 40.2 34.0625 41.875 35.8213C43.55 37.58 45.0156 38.6269 43.5919 40.0088C42.1681 41.3906 39.2788 39.2131 37.6875 37.58C35.2169 35.1931 30.3175 30.7544 30.3175 30.7544L30.3133 30.9763C30.3133 32.1656 30.7237 33.2543 31.4146 34.1169C32.6206 35.6998 34.9656 37.7517 36.3894 39.3429C37.8131 40.9342 38.6506 42.2742 36.3894 43.5304C34.1281 44.7867 30.7781 41.6879 29.3125 40.1804V40.1721C29.3128 39.7585 29.1642 39.3586 28.8938 39.0456C28.3929 38.5816 27.7748 38.2631 27.1063 38.1244C26.4378 37.9856 25.744 38.032 25.0999 38.2584C25.3649 38.0211 25.5774 37.731 25.7236 37.4067C25.8698 37.0824 25.9466 36.7311 25.9489 36.3754C25.9513 36.0197 25.8792 35.6674 25.7373 35.3412C25.5954 35.015 25.3869 34.722 25.125 34.4813C24.5753 34.0648 23.9044 33.8397 23.2148 33.8405C22.5252 33.8412 21.8548 34.0678 21.306 34.4854C21.5835 34.2204 21.7977 33.8962 21.9327 33.537C22.0677 33.1779 22.12 32.7929 22.0858 32.4107C22.0517 32.0285 21.9318 31.6589 21.7352 31.3294C21.5385 30.9999 21.2702 30.7189 20.9501 30.5073C20.2004 30.0363 19.3208 29.815 18.4375 29.8752C17.5542 29.9354 16.7127 30.274 16.0339 30.8423C16.4876 30.2925 16.7113 29.5886 16.6582 28.8777C16.6052 28.1668 16.2795 27.5039 15.7492 27.0275C15.0901 26.4141 14.2503 26.0304 13.3551 25.9338C12.46 25.8372 11.5576 26.0328 10.7828 26.4915L7.99813 21.7889C6.07187 18.7321 3.81063 15.5496 3.81063 15.5496L13.3581 3.95019C13.3581 3.95019 16.75 6.04394 19.5556 7.63519C20.9375 8.43081 23.3244 9.47769 25.125 10.3152C22.2775 12.4508 19.8906 14.5027 20.6025 15.9264C21.8711 16.8371 23.3872 17.3394 24.9486 17.3664C26.51 17.3933 28.0425 16.9436 29.3418 16.0772C31.0077 14.9697 32.9652 14.3823 34.9656 14.3896C36.4187 14.3896 37.8006 14.6911 39.0526 15.2397C41.3725 16.8058 45.6437 20.6583 49.5381 23.0871C54.4375 26.6464 55.4006 28.9496 54.2281 30.1221V30.1263Z" fill="#330099"/>
</g>
</svg>
