<svg width="62" height="47" viewBox="0 0 62 47" fill="none" xmlns="http://www.w3.org/2000/svg">
<g id="Vector">
<rect width="66.8995" height="46.0709" transform="translate(0.291748 0.5625)" fill="white"/>
<path id="Vector_2" d="M54.7292 0.5625C52.4484 2.74545 49.7351 4.42589 46.7646 5.49537C43.6324 6.04812 34.9642 2.02812 30.693 6.13187C29.9811 6.84375 29.1017 7.55563 28.1805 8.2675C26.1705 7.38813 23.0717 6.04812 20.8105 4.75C18.5492 3.45187 12.8542 0.5625 12.8542 0.5625L0.291748 15.2188C0.291748 15.2188 3.3905 19.4062 5.31675 22.17C6.573 24.0125 8.12237 26.8181 9.12737 28.7025L7.70362 30.3775C7.36267 31.0548 7.24 31.8211 7.35248 32.571C7.46496 33.3209 7.80708 34.0175 8.33175 34.565C8.93735 35.019 9.67419 35.2637 10.4311 35.2622C11.188 35.2607 11.9238 35.0131 12.5276 34.5566C12.3037 34.8188 12.1343 35.1228 12.0292 35.4511C11.9241 35.7795 11.8854 36.1254 11.9154 36.4688C11.9454 36.8122 12.0435 37.1462 12.204 37.4513C12.3645 37.7564 12.5841 38.0265 12.8501 38.2458C13.4895 38.6193 14.217 38.8154 14.9575 38.8139C15.698 38.8124 16.4247 38.6134 17.0627 38.2374C16.5842 38.8338 16.3224 39.5749 16.3202 40.3395C16.3179 41.104 16.5752 41.8467 17.0501 42.4459C17.6674 42.6596 18.3257 42.7277 18.9737 42.6449C19.6216 42.5621 20.2417 42.3306 20.7854 41.9685C20.5145 42.6096 20.4443 43.3178 20.5841 43.9995C20.7239 44.6813 21.0671 45.3047 21.5684 45.7875C22.2766 46.1022 23.053 46.2319 23.825 46.1645C24.5969 46.0971 25.3391 45.8348 25.9821 45.4023L28.1428 43.4467C30.1193 45.4148 32.8454 46.6334 35.8562 46.6334L36.1116 46.6292C37.1038 46.5445 38.0543 46.1915 38.8613 45.608C39.6683 45.0246 40.3014 44.2326 40.6927 43.3169C41.3041 43.5514 41.9992 43.7105 42.7362 43.7105C43.7245 43.7105 44.6416 43.4258 45.4162 42.9358C47.8659 41.3153 47.2797 40.059 47.2797 40.059C48.1508 40.434 49.1183 40.5229 50.0432 40.3129C50.968 40.103 51.8023 39.605 52.4261 38.8907C53.0744 38.2276 53.4831 37.3673 53.5877 36.4459C53.6924 35.5245 53.487 34.5945 53.004 33.8029C53.0305 33.8187 53.0612 33.826 53.0919 33.8238C54.8549 33.8238 56.3875 32.8523 57.1873 31.4202C57.5809 30.4023 57.7139 29.3022 57.5742 28.2199C57.4345 27.1376 57.0266 26.1073 56.3875 25.2227L56.4001 25.2436C59.8338 24.5736 59.7082 22.8568 61.3832 20.3442C62.9692 18.2939 64.9426 16.5752 67.1912 15.2857L54.7292 0.5625ZM54.5199 30.1263C52.6774 31.9688 51.2536 31.1731 48.113 28.7862C44.9724 26.3994 38.733 21.9188 38.733 21.9188C38.9884 23.1959 39.5789 24.3056 40.4122 25.1892C41.748 26.6925 45.7261 30.1262 47.6105 31.885C48.783 32.9737 51.798 35.1512 50.0392 36.8262C48.2805 38.5013 46.8986 36.8263 44.0092 34.4813C41.1199 32.1363 34.6711 26.3575 34.6711 26.3575C34.6356 26.9114 34.718 27.4666 34.9129 27.9863C35.1078 28.5061 35.4108 28.9785 35.8017 29.3725C36.5136 30.21 40.4917 34.0625 42.1667 35.8213C43.8417 37.58 45.3074 38.6269 43.8836 40.0088C42.4599 41.3906 39.5705 39.2131 37.9792 37.58C35.5086 35.1931 30.6092 30.7544 30.6092 30.7544L30.6051 30.9763C30.6051 32.1656 31.0154 33.2543 31.7064 34.1169C32.9124 35.6998 35.2574 37.7517 36.6811 39.3429C38.1049 40.9342 38.9424 42.2742 36.6811 43.5304C34.4199 44.7867 31.0699 41.6879 29.6042 40.1804V40.1721C29.6045 39.7585 29.4559 39.3586 29.1855 39.0456C28.6846 38.5816 28.0666 38.2631 27.398 38.1244C26.7295 37.9856 26.0358 38.032 25.3916 38.2584C25.6567 38.0211 25.8691 37.731 26.0153 37.4067C26.1616 37.0824 26.2383 36.7311 26.2407 36.3754C26.2431 36.0197 26.171 35.6674 26.0291 35.3412C25.8872 35.015 25.6786 34.722 25.4167 34.4813C24.8671 34.0648 24.1962 33.8397 23.5065 33.8405C22.8169 33.8412 22.1465 34.0678 21.5977 34.4854C21.8752 34.2204 22.0894 33.8962 22.2244 33.537C22.3594 33.1779 22.4118 32.7929 22.3776 32.4107C22.3434 32.0285 22.2235 31.6589 22.0269 31.3294C21.8303 30.9999 21.5619 30.7189 21.2418 30.5073C20.4922 30.0363 19.6125 29.815 18.7293 29.8752C17.846 29.9354 17.0045 30.274 16.3257 30.8423C16.7794 30.2925 17.003 29.5886 16.95 28.8777C16.8969 28.1668 16.5712 27.5039 16.0409 27.0275C15.3819 26.4141 14.542 26.0304 13.6469 25.9338C12.7517 25.8372 11.8493 26.0328 11.0746 26.4915L8.28987 21.7889C6.36362 18.7321 4.10237 15.5496 4.10237 15.5496L13.6499 3.95019C13.6499 3.95019 17.0417 6.04394 19.8474 7.63519C21.2292 8.43081 23.6161 9.47769 25.4167 10.3152C22.5692 12.4508 20.1824 14.5027 20.8942 15.9264C22.1629 16.8371 23.679 17.3394 25.2404 17.3664C26.8018 17.3933 28.3343 16.9436 29.6336 16.0772C31.2995 14.9697 33.2569 14.3823 35.2574 14.3896C36.7104 14.3896 38.0923 14.6911 39.3444 15.2397C41.6642 16.8058 45.9355 20.6583 49.8299 23.0871C54.7292 26.6464 55.6924 28.9496 54.5199 30.1221V30.1263Z" fill="#330099"/>
</g>
</svg>
