<svg width="65" height="62" viewBox="0 0 65 62" fill="none" xmlns="http://www.w3.org/2000/svg">
<g id="Icon">
<g id="Vector">
<path d="M17.6538 45.4216C13.401 49.3274 9.5119 51.7194 2.29175 51.7194C4.85208 48.9572 8.10371 45.2283 9.46325 39.436C5.02363 35.4612 2.29175 30.0556 2.29175 24.0975C2.29175 11.8942 13.7544 2 27.8951 2C40.9528 2 51.7267 10.4357 53.3013 21.3353" fill="#330099"/>
<path d="M17.6538 45.4216C13.401 49.3274 9.5119 51.7194 2.29175 51.7194C4.85208 48.9572 8.10371 45.2283 9.46325 39.436C5.02363 35.4612 2.29175 30.0556 2.29175 24.0975C2.29175 11.8942 13.7544 2 27.8951 2C40.9528 2 51.7267 10.4357 53.3013 21.3353" stroke="#330099" stroke-width="4" stroke-linecap="round" stroke-linejoin="round"/>
</g>
<path id="Vector_2" d="M42.7842 56.4451C31.227 56.4451 21.8599 48.958 21.8599 39.7215C21.8599 30.4888 31.227 23.0017 42.7842 23.0017C54.3414 23.0017 63.7085 30.4888 63.7085 39.7215C63.7085 44.2325 61.4766 48.3222 57.8497 51.3283C58.9552 55.7114 61.6161 58.5332 63.7085 60.625C57.4312 60.625 54.2368 58.5783 50.4844 55.275C48.099 56.0275 45.5044 56.4451 42.7842 56.4451Z" fill="#330099" stroke="#330099" stroke-width="2" stroke-linecap="round" stroke-linejoin="round"/>
</g>
</svg>
