<svg width="62" height="59" viewBox="0 0 62 59" fill="none" xmlns="http://www.w3.org/2000/svg">
<g id="Icon" clip-path="url(#clip0_997_380)">
<path id="Vector" d="M32.5355 58.6251H6.43341C4.80454 58.6251 3.24239 58.0074 2.0906 56.908C0.938815 55.8086 0.291748 54.3174 0.291748 52.7626V17.5876C0.291748 14.3632 3.0555 11.7251 6.43341 11.7251H9.50425V8.79385L15.738 7.62135C16.0509 5.5252 17.1457 3.60719 18.8211 2.21962C20.4966 0.832058 22.6403 0.0681152 24.8584 0.0681152C27.0766 0.0681152 29.2202 0.832058 30.8957 2.21962C32.5712 3.60719 33.6659 5.5252 33.9788 7.62135L40.2126 8.79385V11.7251H43.2834C44.9123 11.7251 46.4744 12.3428 47.6262 13.4422C48.778 14.5416 49.4251 16.0328 49.4251 17.5876V20.5189H43.2834V17.5876H40.2126V20.5189H9.50425V17.5876H6.43341V52.7626H21.7876V58.6251H32.5355ZM24.8584 11.7251C25.6728 11.7251 26.4539 11.4163 27.0298 10.8666C27.6057 10.3168 27.9292 9.57127 27.9292 8.79385C27.9292 8.01644 27.6057 7.27086 27.0298 6.72115C26.4539 6.17143 25.6728 5.8626 24.8584 5.8626C24.044 5.8626 23.2629 6.17143 22.687 6.72115C22.1111 7.27086 21.7876 8.01644 21.7876 8.79385C21.7876 9.57127 22.1111 10.3168 22.687 10.8666C23.2629 11.4163 24.044 11.7251 24.8584 11.7251ZM31.0001 23.4501H55.5667C57.1956 23.4501 58.7578 24.0678 59.9096 25.1672C61.0613 26.2666 61.7084 27.7578 61.7084 29.3126V52.7626C61.7084 54.3174 61.0613 55.8086 59.9096 56.908C58.7578 58.0074 57.1956 58.6251 55.5667 58.6251H31.0001C29.3712 58.6251 27.8091 58.0074 26.6573 56.908C25.5055 55.8086 24.8584 54.3174 24.8584 52.7626V29.3126C24.8584 26.0882 27.6222 23.4501 31.0001 23.4501ZM31.0001 29.3126V52.7626H55.5667V29.3126H31.0001Z" fill="#330099"/>
</g>
<defs>
<clipPath id="clip0_997_380">
<rect width="61.4167" height="58.625" fill="white" transform="translate(0.291748)"/>
</clipPath>
</defs>
</svg>
