<svg width="56" height="53" viewBox="0 0 56 53" fill="none" xmlns="http://www.w3.org/2000/svg">
<g id="clarity:world-solid">
<path id="Vector" d="M15.396 26.6249C15.4046 29.0493 15.7227 31.4636 16.3432 33.8145H26.2432V19.9895H16.2057C15.6776 22.1656 15.406 24.3912 15.396 26.6249Z" fill="#190251"/>
<path id="Vector_2" d="M28.8403 19.9895V33.8145H38.7403C39.3867 31.4666 39.7304 29.0523 39.7639 26.6249C39.7589 24.3918 39.4925 22.1661 38.9695 19.9895H28.8403Z" fill="#190251"/>
<path id="Vector_3" d="M27.5419 3.29175C22.7072 3.29175 17.9811 4.66022 13.9613 7.22412C9.94139 9.78802 6.80829 13.4322 4.95815 17.6958C3.108 21.9594 2.62392 26.651 3.56712 31.1772C4.51031 35.7034 6.83842 39.861 10.257 43.1242C13.6757 46.3875 18.0312 48.6097 22.773 49.5101C27.5147 50.4104 32.4297 49.9483 36.8963 48.1823C41.363 46.4162 45.1807 43.4255 47.8667 39.5884C50.5527 35.7512 51.9863 31.24 51.9863 26.6251C51.9863 20.4367 49.4109 14.5018 44.8267 10.1259C40.2425 5.75007 34.0249 3.29175 27.5419 3.29175ZM46.2113 36.4105H40.6808C39.6351 39.5354 38.089 42.487 36.0974 45.1605C34.6278 45.7719 33.0901 46.222 31.5141 46.5022C34.3366 43.5746 36.509 40.1318 37.9002 36.3813H28.8558V46.8084H26.2738V36.4105H17.1835C18.5729 40.1662 20.7453 43.614 23.5696 46.5459C22.0261 46.2688 20.5196 45.8286 19.078 45.2334C17.0794 42.5375 15.533 39.5609 14.4946 36.4105H8.87242C8.38436 35.5606 7.96059 34.6785 7.60437 33.7709H13.7155C13.1428 31.4278 12.8456 29.0311 12.8294 26.6251C12.8302 24.3949 13.076 22.1709 13.5627 19.9897H7.31409C7.63538 19.0847 8.02338 18.2027 8.4752 17.3501H14.296C15.3882 13.8779 17.082 10.6048 19.3071 7.66675C20.7182 7.10866 22.1883 6.69794 23.6919 6.44175C20.6526 9.55536 18.3589 13.2625 16.9696 17.3063H26.2738V6.20841H28.8558V17.3501H38.1599C36.7732 13.3127 34.4848 9.61084 31.453 6.50008C32.9541 6.73778 34.4242 7.12892 35.8377 7.66675C38.0499 10.5836 39.7382 13.8314 40.8335 17.2772H46.5933C47.045 18.1298 47.433 19.0118 47.7544 19.9167H41.5516C42.0488 22.1213 42.2997 24.37 42.3002 26.6251C42.2923 29.0451 42.0002 31.4567 41.4294 33.8147H47.5405C47.1625 34.7089 46.7183 35.5764 46.2113 36.4105Z" fill="#330099"/>
</g>
</svg>
