<svg width="62" height="59" viewBox="0 0 62 59" fill="none" xmlns="http://www.w3.org/2000/svg">
<g id="Icon" clip-path="url(#clip0_997_391)">
<path id="Vector" d="M31.0001 13.4348C33.3755 13.4348 35.6537 14.3356 37.3334 15.9389C39.013 17.5422 39.9567 19.7168 39.9567 21.9843C39.9567 24.2518 39.013 26.4264 37.3334 28.0297C35.6537 29.633 33.3755 30.5338 31.0001 30.5338C28.6246 30.5338 26.3465 29.633 24.6668 28.0297C22.9871 26.4264 22.0435 24.2518 22.0435 21.9843C22.0435 19.7168 22.9871 17.5422 24.6668 15.9389C26.3465 14.3356 28.6246 13.4348 31.0001 13.4348ZM13.0869 19.5416C14.5199 19.5416 15.8506 19.908 17.0022 20.5675C16.6183 24.0606 17.6931 27.5292 19.8939 30.2406C18.6144 32.5856 16.0554 34.1978 13.0869 34.1978C11.0508 34.1978 9.0981 33.4258 7.65837 32.0515C6.21864 30.6772 5.4098 28.8133 5.4098 26.8697C5.4098 24.9262 6.21864 23.0622 7.65837 21.6879C9.0981 20.3137 11.0508 19.5416 13.0869 19.5416ZM48.9133 19.5416C50.9494 19.5416 52.9021 20.3137 54.3418 21.6879C55.7815 23.0622 56.5904 24.9262 56.5904 26.8697C56.5904 28.8133 55.7815 30.6772 54.3418 32.0515C52.9021 33.4258 50.9494 34.1978 48.9133 34.1978C45.9448 34.1978 43.3858 32.5856 42.1063 30.2406C44.3374 27.4912 45.373 24.0269 44.998 20.5675C46.1495 19.908 47.4802 19.5416 48.9133 19.5416ZM14.3664 44.5793C14.3664 39.5229 21.8132 35.4192 31.0001 35.4192C40.187 35.4192 47.6338 39.5229 47.6338 44.5793V48.8541H14.3664V44.5793ZM0.291748 48.8541V45.19C0.291748 41.7947 5.12831 38.9367 11.6794 38.1062C10.1696 39.7672 9.24834 42.0634 9.24834 44.5793V48.8541H0.291748ZM61.7084 48.8541H52.7518V44.5793C52.7518 42.0634 51.8306 39.7672 50.3207 38.1062C56.8718 38.9367 61.7084 41.7947 61.7084 45.19V48.8541Z" fill="#330099"/>
</g>
<defs>
<clipPath id="clip0_997_391">
<rect width="61.4167" height="58.625" fill="white" transform="translate(0.291748)"/>
</clipPath>
</defs>
</svg>
