<svg width="90" height="60" viewBox="0 0 90 60" fill="none" xmlns="http://www.w3.org/2000/svg">
<path d="M38.2781 0.0920822L31.0922 7.93444C28.9406 8.57902 26.9438 9.76074 25.2563 11.3875L21.5156 15.0248C20.0812 16.4214 18.2109 17.1887 16.2844 17.1887H13.5V36.833C16.3687 36.9251 19.0969 38.1989 21.1359 40.4242L26.1422 45.8878L27.1266 46.9621L30.9234 51.1058C31.7953 52.0573 33.2297 52.0573 34.1016 51.1058C34.3406 50.8449 34.5234 50.5379 34.6219 50.2156C35.0156 49.0339 35.9297 48.1438 37.0547 47.8675C38.1797 47.5913 39.3609 47.9596 40.1766 48.8651L41.6953 50.4919C43.3266 52.2721 45.9703 52.2721 47.5875 50.4919C48.3469 49.6631 48.7547 48.6042 48.7969 47.5146C48.8531 46.164 49.5844 44.9669 50.7094 44.3837C51.8344 43.8006 53.1422 43.9233 54.1406 44.706C55.4625 45.7343 57.3047 45.5962 58.4859 44.307C59.8078 42.8644 59.8078 40.5316 58.4859 39.1044L47.8266 27.4713L42.7922 32.5358C38.9531 36.4033 33.0609 36.4647 29.1516 32.6739C24.6938 28.3461 24.5953 20.7953 28.9266 16.3293L38.7844 6.16952C42.6375 2.20998 47.7281 0 53.0297 0C58.1063 0 63.0141 2.04116 66.7969 5.70911L71.0297 9.82213H87.75C88.9875 9.82213 90 10.9271 90 12.2777V44.1996C90 46.916 87.9891 49.1106 85.5 49.1106H81C79.3406 49.1106 77.8781 48.1284 77.1047 46.6551H65.1656C64.6875 47.6834 64.0547 48.6656 63.2672 49.525C60.8625 52.1494 57.5297 53.1776 54.4078 52.6098C53.9016 53.7301 53.2125 54.7737 52.3547 55.7099C48.5156 59.8996 42.5109 60.314 38.2359 56.953C34.7062 60.1452 29.4469 59.9457 26.1422 56.3238L22.3594 52.1801L21.375 51.1058L16.3687 45.6422C15.5953 44.7981 14.5828 44.307 13.5 44.2149C13.5 46.916 11.475 49.1106 9 49.1106H4.5C2.01094 49.1106 0 46.916 0 44.1996V12.2777C0 10.9271 1.0125 9.82213 2.25 9.82213H16.2844C16.5656 9.82213 16.8328 9.7147 17.0297 9.51519L20.7563 5.89328C24.6797 2.10255 29.7281 0 34.9734 0H36.4219C37.0406 0 37.6734 0.0306939 38.2781 0.0920822ZM76.5 39.2885V17.1887H69.75C68.9203 17.1887 68.1188 16.8511 67.5141 16.2526L62.325 11.2187C59.7656 8.73249 56.4609 7.3666 53.0297 7.3666C49.4578 7.3666 46.0266 8.85526 43.425 11.5257L33.5672 21.6854C32.1187 23.1894 32.1469 25.7217 33.6375 27.1643C34.9453 28.4381 36.9281 28.4074 38.2078 27.1183L48.3188 16.9278C49.6828 15.5466 51.8203 15.6387 53.0859 17.1427C54.3516 18.6467 54.2672 20.9641 52.8891 22.3453L52.7766 22.4681L63.2391 33.8863C64.6453 35.4211 65.5594 37.3087 65.9672 39.2732H76.5V39.2885ZM9 41.744C9 41.0928 8.76295 40.4682 8.34099 40.0077C7.91903 39.5472 7.34674 39.2885 6.75 39.2885C6.15326 39.2885 5.58097 39.5472 5.15901 40.0077C4.73705 40.4682 4.5 41.0928 4.5 41.744C4.5 42.3953 4.73705 43.0199 5.15901 43.4804C5.58097 43.9409 6.15326 44.1996 6.75 44.1996C7.34674 44.1996 7.91903 43.9409 8.34099 43.4804C8.76295 43.0199 9 42.3953 9 41.744ZM83.25 44.1996C83.8467 44.1996 84.419 43.9409 84.841 43.4804C85.2629 43.0199 85.5 42.3953 85.5 41.744C85.5 41.0928 85.2629 40.4682 84.841 40.0077C84.419 39.5472 83.8467 39.2885 83.25 39.2885C82.6533 39.2885 82.081 39.5472 81.659 40.0077C81.2371 40.4682 81 41.0928 81 41.744C81 42.3953 81.2371 43.0199 81.659 43.4804C82.081 43.9409 82.6533 44.1996 83.25 44.1996Z" fill="#330099"/>
</svg>
