<svg width="72" height="72" viewBox="0 0 72 72" fill="none" xmlns="http://www.w3.org/2000/svg">
<g id="streamline:money-cash-coins-stack-accounting-billing-payment-stack-cash-coins-currency-money-finance" clip-path="url(#clip0_1085_59233)">
<g id="Group">
<path id="Vector" d="M46.2854 38.5714C59.0669 38.5714 69.4283 33.9664 69.4283 28.2857C69.4283 22.6051 59.0669 18 46.2854 18C33.504 18 23.1426 22.6051 23.1426 28.2857C23.1426 33.9664 33.504 38.5714 46.2854 38.5714Z" stroke="#330099" stroke-width="5" stroke-linecap="round" stroke-linejoin="round"/>
<path id="Vector_2" d="M23.1426 28.2859V59.143C23.1426 64.8002 33.4283 69.4287 46.2854 69.4287C59.1426 69.4287 69.4283 64.8002 69.4283 59.143V28.2859" stroke="#330099" stroke-width="5" stroke-linecap="round" stroke-linejoin="round"/>
<path id="Vector_3" d="M69.4284 43.7144C69.4284 49.3715 59.1427 54.0001 46.2856 54.0001C33.4284 54.0001 23.1427 49.3715 23.1427 43.7144M45.7713 7.71436C39.7618 4.00572 32.7667 2.2121 25.7141 2.5715C12.9084 2.5715 2.57129 7.20007 2.57129 12.8572C2.57129 15.8915 5.55415 18.6172 10.2856 20.5715" stroke="#330099" stroke-width="5" stroke-linecap="round" stroke-linejoin="round"/>
<path id="Vector_4" d="M10.2856 51.4286C5.55415 49.4743 2.57129 46.7486 2.57129 43.7143V12.8572" stroke="#330099" stroke-width="5" stroke-linecap="round" stroke-linejoin="round"/>
<path id="Vector_5" d="M10.2856 36.0002C5.55415 34.0459 2.57129 31.3202 2.57129 28.2859" stroke="#330099" stroke-width="5" stroke-linecap="round" stroke-linejoin="round"/>
</g>
</g>
<defs>
<clipPath id="clip0_1085_59233">
<rect width="72" height="72" fill="white"/>
</clipPath>
</defs>
</svg>
