<svg width="60" height="60" viewBox="0 0 60 60" fill="none" xmlns="http://www.w3.org/2000/svg">
<g id="material-symbols:quick-reference-outline-sharp">
<g id="Vector">
<path fill-rule="evenodd" clip-rule="evenodd" d="M26.6875 35H17.5V30H30.3125C29.5642 30.7083 28.8875 31.4792 28.2825 32.3125C27.6775 33.1458 27.1458 34.0417 26.6875 35ZM25.1875 45H17.5V40H25.1875C25.0625 40.8333 25 41.6667 25 42.5C25 43.3333 25.0625 44.1667 25.1875 45ZM7.5 5V55H30.3125C29.5642 54.2917 28.8875 53.5208 28.2825 52.6875C27.6775 51.8542 27.1458 50.9583 26.6875 50H12.5V10H30V22.5H42.5V25C43.375 25 44.2292 25.0625 45.0625 25.1875C45.8958 25.3125 46.7083 25.5 47.5 25.75V20L32.5 5H7.5Z" fill="#2E0493"/>
<path fill-rule="evenodd" clip-rule="evenodd" d="M42.5 30C45.9583 30 48.9067 31.2192 51.345 33.6575C53.7833 36.0958 55.0017 39.0433 55 42.5C55 45.9583 53.7808 48.9067 51.3425 51.345C48.9042 53.7833 45.9567 55.0017 42.5 55C39.0417 55 36.0933 53.7808 33.655 51.3425C31.2167 48.9042 29.9983 45.9567 30 42.5C30 39.0417 31.2192 36.0933 33.6575 33.655C36.0958 31.2167 39.0433 29.9983 42.5 30ZM43.75 50H41.25V40H43.75V50ZM43.375 37.125C43.125 37.375 42.8333 37.5 42.5 37.5C42.1667 37.5 41.875 37.375 41.625 37.125C41.375 36.875 41.25 36.5833 41.25 36.25C41.25 35.9167 41.375 35.625 41.625 35.375C41.875 35.125 42.1667 35 42.5 35C42.8333 35 43.125 35.125 43.375 35.375C43.625 35.625 43.75 35.9167 43.75 36.25C43.75 36.5833 43.625 36.875 43.375 37.125Z" fill="#FFE800"/>
</g>
</g>
</svg>
