<svg width="60" height="60" viewBox="0 0 60 60" fill="none" xmlns="http://www.w3.org/2000/svg">
<g id="carbon:iso-filled">
<path id="Vector" d="M39.375 24.375H45V35.625H39.375V24.375Z" fill="#FFE800"/>
<g id="Vector_2">
<path d="M52.5 11.25H7.5C6.50544 11.25 5.55161 11.6451 4.84835 12.3483C4.14509 13.0516 3.75 14.0054 3.75 15V45C3.75 45.9946 4.14509 46.9484 4.84835 47.6516C5.55161 48.3549 6.50544 48.75 7.5 48.75H52.5C53.4946 48.75 54.4484 48.3549 55.1516 47.6516C55.8549 46.9484 56.25 45.9946 56.25 45V15C56.25 14.0054 55.8549 13.0516 55.1516 12.3483C54.4484 11.6451 53.4946 11.25 52.5 11.25ZM15 39.375H11.25V20.625H15V39.375ZM31.875 24.375H22.5V28.125H28.125C29.1196 28.125 30.0734 28.5201 30.7766 29.2234C31.4799 29.9266 31.875 30.8804 31.875 31.875V35.625C31.875 36.6196 31.4799 37.5734 30.7766 38.2766C30.0734 38.9799 29.1196 39.375 28.125 39.375H18.75V35.625H28.125V31.875H22.5C21.5054 31.875 20.5516 31.4799 19.8484 30.7766C19.1451 30.0734 18.75 29.1196 18.75 28.125V24.375C18.75 23.3804 19.1451 22.4266 19.8484 21.7234C20.5516 21.0201 21.5054 20.625 22.5 20.625H31.875V24.375ZM48.75 35.625C48.75 36.6196 48.3549 37.5734 47.6516 38.2766C46.9484 38.9799 45.9946 39.375 45 39.375H39.375C38.3804 39.375 37.4266 38.9799 36.7234 38.2766C36.0201 37.5734 35.625 36.6196 35.625 35.625V24.375C35.625 23.3804 36.0201 22.4266 36.7234 21.7234C37.4266 21.0201 38.3804 20.625 39.375 20.625H45C45.9946 20.625 46.9484 21.0201 47.6516 21.7234C48.3549 22.4266 48.75 23.3804 48.75 24.375V35.625Z" fill="#2E0493"/>
<path d="M31.875 24.375H22.5V28.125H28.125C29.1196 28.125 30.0734 28.5201 30.7766 29.2234C31.4799 29.9266 31.875 30.8804 31.875 31.875V35.625C31.875 36.6196 31.4799 37.5734 30.7766 38.2766C30.0734 38.9799 29.1196 39.375 28.125 39.375H18.75V35.625H28.125V31.875H22.5C21.5054 31.875 20.5516 31.4799 19.8484 30.7766C19.1451 30.0734 18.75 29.1196 18.75 28.125V24.375C18.75 23.3804 19.1451 22.4266 19.8484 21.7234C20.5516 21.0201 21.5054 20.625 22.5 20.625H31.875V24.375Z" fill="#FFE800"/>
<path d="M15 39.375H11.25V20.625H15V39.375Z" fill="#FFE800"/>
</g>
</g>
</svg>
