<svg width="60" height="60" viewBox="0 0 60 60" fill="none" xmlns="http://www.w3.org/2000/svg">
<g id="ion:documents">
<path id="Vector" d="M35.4903 28C35.5906 28.0001 35.6887 27.9736 35.7723 27.9239C35.8559 27.8743 35.9213 27.8036 35.9602 27.7208C35.9991 27.638 36.0098 27.5467 35.991 27.4585C35.9721 27.3702 35.9246 27.2889 35.8544 27.2247L25.8722 18.136C25.8012 18.0715 25.7105 18.0274 25.6114 18.0093C25.5124 17.9911 25.4095 17.9998 25.316 18.0341C25.2225 18.0685 25.1425 18.127 25.0862 18.2022C25.0299 18.2774 24.9999 18.3659 25 18.4564V26.6319C25 26.9947 25.161 27.3427 25.4475 27.5993C25.734 27.8559 26.1227 28 26.5279 28H35.4903Z" fill="#2E0493"/>
<path id="Vector_2" d="M22.9521 31.345C22.4572 30.8556 22.064 30.2728 21.7952 29.6302C21.5263 28.9877 21.3872 28.2981 21.3858 27.6013V16.491H12.711C10.6678 16.497 8.70994 17.3133 7.26516 18.7614C5.82038 20.2096 5.00604 22.1719 5 24.2199V51.2711C5 53.3209 5.8124 55.2868 7.25849 56.7363C8.70458 58.1857 10.6659 59 12.711 59H30.0607C32.1057 59 34.067 58.1857 35.5131 56.7363C36.9592 55.2868 37.7716 53.3209 37.7716 51.2711V32.9149H26.6871C25.9919 32.9139 25.3038 32.7746 24.6626 32.5052C24.0215 32.2357 23.4401 31.8413 22.9521 31.345ZM44.0368 13.5926H52.5177C52.6126 13.5927 52.7054 13.5647 52.7846 13.5121C52.8637 13.4594 52.9255 13.3846 52.9623 13.2969C52.9991 13.2091 53.0093 13.1125 52.9915 13.019C52.9736 12.9255 52.9287 12.8394 52.8622 12.7714L43.4163 3.14411C43.3492 3.07579 43.2633 3.02904 43.1696 3.00981C43.0758 2.99058 42.9785 2.99975 42.89 3.03614C42.8015 3.07253 42.7258 3.13451 42.6726 3.21417C42.6193 3.29383 42.5909 3.38757 42.591 3.48346V12.1435C42.591 12.5278 42.7433 12.8964 43.0144 13.1682C43.2856 13.44 43.6533 13.5926 44.0368 13.5926Z" fill="#2E0493"/>
<path id="Vector_3" d="M44.1061 17.6458C42.7274 17.6349 41.4081 17.0641 40.4332 16.0565C39.4583 15.0488 38.9059 13.6854 38.8954 12.2604V1H26.1055C24.2217 1.00227 22.4156 1.77671 21.0836 3.15344C19.7515 4.53017 19.0022 6.39676 19 8.34375V12.75H23.9881C24.6247 12.7526 25.2546 12.8853 25.8416 13.1403C26.4285 13.3952 26.9609 13.7676 27.4082 14.2359L40.3354 27.8218C41.2373 28.7676 41.7409 30.0434 41.7364 31.3713V48H48.0189C51.8688 48 55 44.7051 55 40.6562V17.6458H44.1061Z" fill="#FFE800"/>
</g>
</svg>
