<svg width="60" height="60" viewBox="0 0 60 60" fill="none" xmlns="http://www.w3.org/2000/svg">
<g id="carbon:summary-kpi">
<g id="Vector">
<path fill-rule="evenodd" clip-rule="evenodd" d="M2 43.2805L13.4521 53.4958C14.2 54.1617 15.172 54.5181 16.1732 54.4971C17.1743 54.4761 18.1305 54.0773 18.8498 53.3806L34.3415 38.386L41.5701 45.2952C41.9558 45.664 42.4108 45.9526 42.9088 46.1443C43.4069 46.336 43.938 46.427 44.4714 46.412C45.0048 46.3969 45.53 46.2762 46.0164 46.0567C46.5028 45.8373 46.9409 45.5235 47.3052 45.1336L58.5835 33.059L55.6331 30.3006L44.3568 42.3711L37.0333 35.3709C36.3053 34.6744 35.3357 34.2869 34.3282 34.2899C33.3206 34.293 32.3534 34.6862 31.6296 35.3871L16.0893 50.4322L4.68974 40.2654L2 43.2805ZM34.3334 6H42.4168C43.4884 6.00107 44.5158 6.42723 45.2735 7.18496C46.0312 7.94269 46.4574 8.97009 46.4585 10.0417V22.1667C46.4569 23.2381 46.0305 24.2652 45.2729 25.0228C44.5153 25.7805 43.4882 26.2068 42.4168 26.2084H34.3334V22.1667H42.4168V18.125H36.3543V14.0834H42.4168V10.0417H34.3334V6ZM18.1667 26.2084H30.2918V22.1667H22.2084V18.125H26.2501C27.3217 18.124 28.3491 17.6978 29.1068 16.9401C29.8645 16.1823 30.2907 15.155 30.2918 14.0834V10.0417C30.2907 8.97009 29.8645 7.94269 29.1068 7.18496C28.3491 6.42723 27.3217 6.00107 26.2501 6H18.1667V10.0417H26.2501V14.0834H22.2084C21.1368 14.0844 20.1094 14.5106 19.3517 15.2683C18.594 16.0261 18.1678 17.0534 18.1667 18.125V26.2084ZM10.0834 6V22.1667H14.125V26.2084H2V22.1667H6.04168V12.0625H2V8.02084H6.04168V6H10.0834Z" fill="#2E0493"/>
<path d="M58.5835 20.1459H50.5002L54.5418 14.0834L58.5835 20.1459Z" fill="#FFE800"/>
</g>
</g>
</svg>
