<svg width="60" height="60" viewBox="0 0 60 60" fill="none" xmlns="http://www.w3.org/2000/svg">
<g id="ic:baseline-people">
<g id="Vector">
<path d="M40.5455 26.8571C44.9218 26.8571 48.4282 23.3157 48.4282 18.9286C48.4282 14.5414 44.9218 11 40.5455 11C36.1691 11 32.6364 14.5414 32.6364 18.9286C32.6364 23.3157 36.1691 26.8571 40.5455 26.8571Z" fill="#FFE800"/>
<path fill-rule="evenodd" clip-rule="evenodd" d="M19.4545 26.8571C23.8309 26.8571 27.3373 23.3157 27.3373 18.9286C27.3373 14.5414 23.8309 11 19.4545 11C15.0782 11 11.5455 14.5414 11.5455 18.9286C11.5455 23.3157 15.0782 26.8571 19.4545 26.8571ZM19.4545 32.1429C13.3118 32.1429 1 35.235 1 41.3929V48H37.9091V41.3929C37.9091 35.235 25.5973 32.1429 19.4545 32.1429Z" fill="#2E0493"/>
<path d="M40.5455 32.1429C39.7809 32.1429 38.9109 32.1957 37.9882 32.275C41.0464 34.495 43.1818 37.4814 43.1818 41.3929V48H59V41.3929C59 35.235 46.6882 32.1429 40.5455 32.1429Z" fill="#FFE800"/>
</g>
</g>
</svg>
