<svg width="16" height="20" viewBox="0 0 16 20" fill="none" xmlns="http://www.w3.org/2000/svg">
<g id="Group">
<path id="Vector" d="M11.5 13H13V12H11.5V13ZM13 15H11.5V14H13V15ZM11.5 17H13V16H11.5V17Z" fill="#858585"/>
<path id="Vector_2" fill-rule="evenodd" clip-rule="evenodd" d="M4.5 0L12.5 3V10H14.5C14.6326 10 14.7598 10.0527 14.8536 10.1464C14.9473 10.2402 15 10.3674 15 10.5V19H15.5C15.6326 19 15.7598 19.0527 15.8536 19.1464C15.9473 19.2402 16 19.3674 16 19.5C16 19.6326 15.9473 19.7598 15.8536 19.8536C15.7598 19.9473 15.6326 20 15.5 20H0.5C0.367392 20 0.240215 19.9473 0.146447 19.8536C0.0526785 19.7598 0 19.6326 0 19.5C0 19.3674 0.0526785 19.2402 0.146447 19.1464C0.240215 19.0527 0.367392 19 0.5 19H1V8.5C1 8.36739 1.05268 8.24021 1.14645 8.14645C1.24021 8.05268 1.36739 8 1.5 8H2.5V4.5H3.5V8H4.5V0ZM14 19H13V18H11.5V19H10.5V11H14V19ZM4.5 9H2V19H4.5V9ZM7 4.5H6V5.5H7V4.5ZM8 4.5H9V5.5H8V4.5ZM11 4.5H10V5.5H11V4.5ZM6 6.5H7V7.5H6V6.5ZM9 6.5H8V7.5H9V6.5ZM10 6.5H11V7.5H10V6.5ZM7 8.5H6V9.5H7V8.5ZM8 8.5H9V9.5H8V8.5ZM11 8.5H10V9.5H11V8.5ZM6 10.5H7V11.5H6V10.5ZM9 10.5H8V11.5H9V10.5ZM7 12.5H6V13.5H7V12.5ZM8 12.5H9V13.5H8V12.5ZM6 14.5H7V15.5H6V14.5ZM9 14.5H8V15.5H9V14.5ZM7 16.5H6V17.5H7V16.5ZM8 16.5H9V17.5H8V16.5Z" fill="#858585"/>
</g>
</svg>
