<svg width="60" height="60" viewBox="0 0 60 60" fill="none" xmlns="http://www.w3.org/2000/svg">
<g id="teenyicons:computer-solid" clip-path="url(#clip0_667_28960)">
<path id="Vector" d="M40 48H52V44H40V48Z" fill="#FFE800"/>
<path id="Vector_2" fill-rule="evenodd" clip-rule="evenodd" d="M38 0C36.4087 0 34.8826 0.632141 33.7574 1.75736C32.6321 2.88258 32 4.4087 32 6V12H6C4.4087 12 2.88258 12.6321 1.75736 13.7574C0.632141 14.8826 0 16.4087 0 18L0 42C0 43.5913 0.632141 45.1174 1.75736 46.2426C2.88258 47.3679 4.4087 48 6 48H24V56H16V60H54C55.5913 60 57.1174 59.3679 58.2426 58.2426C59.3679 57.1174 60 55.5913 60 54V6C60 4.4087 59.3679 2.88258 58.2426 1.75736C57.1174 0.632141 55.5913 0 54 0L38 0ZM32.34 56H28V48H32V54C32 54.7 32.12 55.376 32.34 56ZM38 56H54C54.5304 56 55.0391 55.7893 55.4142 55.4142C55.7893 55.0391 56 54.5304 56 54V24H36V54C36 54.5304 36.2107 55.0391 36.5858 55.4142C36.9609 55.7893 37.4696 56 38 56ZM36 20H56V6C56 5.46957 55.7893 4.96086 55.4142 4.58579C55.0391 4.21071 54.5304 4 54 4H38C37.4696 4 36.9609 4.21071 36.5858 4.58579C36.2107 4.96086 36 5.46957 36 6V20Z" fill="#2E0493"/>
</g>
<defs>
<clipPath id="clip0_667_28960">
<rect width="60" height="60" fill="white"/>
</clipPath>
</defs>
</svg>
