<svg width="60" height="60" viewBox="0 0 60 60" fill="none" xmlns="http://www.w3.org/2000/svg">
<g id="map:lawyer">
<g id="Vector">
<path d="M0.354 32.904C0.597876 35.0564 1.51189 37.0329 2.92556 38.4649C4.33922 39.8969 6.156 40.6865 8.037 40.6865C9.918 40.6865 11.7348 39.8969 13.1484 38.4649C14.5621 37.0329 15.4761 35.0564 15.72 32.904H0.354Z" fill="#FFE800"/>
<path fill-rule="evenodd" clip-rule="evenodd" d="M42.2184 50.9054C42.2189 51.0873 42.1883 51.2676 42.1283 51.436C42.0684 51.6043 41.9803 51.7573 41.869 51.8863C41.7578 52.0153 41.6257 52.1177 41.4801 52.1877C41.3346 52.2578 41.1785 52.294 41.0208 52.2944H18.6336C17.976 52.2944 17.4336 51.6712 17.4336 50.9054C17.4352 50.5395 17.5624 50.1894 17.7873 49.9316C18.0123 49.6738 18.3166 49.5295 18.6336 49.5302H41.0196C41.682 49.5302 42.2184 50.1451 42.2184 50.9054ZM17.5644 53.002H42.0888V57H17.5644V53.002ZM59.2188 30.1219L52.9272 20.1206H56.2908C57.1092 20.1206 57.768 19.3465 57.768 18.3896C57.768 17.441 57.108 16.6752 56.2908 16.6752H38.4732C37.9443 14.9939 37.041 13.503 35.8541 12.3526C34.6673 11.2023 33.2388 10.433 31.7124 10.1222V4.7255C31.7124 3.76581 31.0452 3.00001 30.2184 3.00001L30.0792 3.01801L29.94 3.00001C29.7437 2.99945 29.5492 3.04374 29.3678 3.13031C29.1864 3.21688 29.0216 3.34403 28.8829 3.50442C28.7443 3.66481 28.6345 3.85528 28.5599 4.06485C28.4854 4.27442 28.4475 4.49895 28.4484 4.7255V10.1194C26.9222 10.43 25.494 11.1992 24.3075 12.3497C23.121 13.5001 22.2182 14.9911 21.69 16.6724H3.8688C3.0564 16.6724 2.394 17.4382 2.394 18.3868C2.394 19.3451 3.0564 20.1179 3.8688 20.1179H7.0788L0.786 30.1191H0V31.9665H16.0776V30.1191H15.288L8.9976 20.1206H23.6004C23.6004 19.7301 23.6376 19.3465 23.688 18.9795C23.7396 18.8064 23.7744 18.6306 23.7744 18.4491C24.0449 17.1335 24.6242 15.9292 25.4487 14.9685C26.2732 14.0077 27.311 13.3275 28.4484 13.0026V31.9706H28.386C28.2576 39.1052 25.3164 45.3273 20.9532 48.824H39.21C34.8456 45.3273 31.9068 39.1052 31.7712 31.9706H31.7136V13.0026C32.8508 13.3276 33.8885 14.0078 34.7128 14.9686C35.5371 15.9294 36.1161 17.1336 36.3864 18.4491C36.3912 18.6306 36.4236 18.8064 36.4764 18.9795C36.5244 19.3479 36.5544 19.7301 36.5544 20.1206H51.0048L44.712 30.1219H43.9272V31.9692H60V30.1219H59.2188ZM7.398 30.1219H2.376L7.398 22.1383V30.1219ZM8.6832 30.1219V22.1383L13.7052 30.1219H8.6832ZM51.3216 30.1219H46.2972L51.3216 22.1383V30.1219ZM52.6008 30.1219V22.1383L57.6288 30.1219H52.6008ZM9.5292 14.2684C9.51819 14.7162 9.35627 15.1415 9.07786 15.4538C8.79944 15.7662 8.42647 15.9409 8.0382 15.9409C7.64993 15.9409 7.27696 15.7662 6.99854 15.4538C6.72013 15.1415 6.55821 14.7162 6.5472 14.2684C6.5472 13.3184 7.2168 12.5429 8.0412 12.5429C8.862 12.5415 9.5292 13.3184 9.5292 14.2684ZM53.454 14.177C53.454 15.1339 52.7868 15.8928 51.9636 15.8928C51.7678 15.8942 51.5737 15.8509 51.3926 15.7652C51.2114 15.6796 51.0468 15.5533 50.9082 15.3937C50.7696 15.2342 50.6598 15.0445 50.5851 14.8356C50.5104 14.6268 50.4724 14.4029 50.4732 14.177C50.4651 13.9453 50.4977 13.7141 50.569 13.4973C50.6403 13.2805 50.7487 13.0826 50.8879 12.9154C51.0271 12.7482 51.1942 12.6152 51.379 12.5243C51.5638 12.4334 51.7627 12.3866 51.9636 12.3866C52.1645 12.3866 52.3634 12.4334 52.5482 12.5243C52.733 12.6152 52.9001 12.7482 53.0393 12.9154C53.1785 13.0826 53.2869 13.2805 53.3582 13.4973C53.4295 13.7141 53.4621 13.9453 53.454 14.177Z" fill="#2E0493"/>
<path d="M44.28 32.904C44.5222 35.0578 45.4354 37.0363 46.8491 38.47C48.2628 39.9037 50.0804 40.6946 51.9624 40.695C53.8442 40.6951 55.6615 39.9042 57.0747 38.4703C58.488 37.0365 59.4003 35.0577 59.6412 32.904H44.28Z" fill="#FFE800"/>
</g>
</g>
</svg>
