<svg width="60" height="60" viewBox="0 0 60 60" fill="none" xmlns="http://www.w3.org/2000/svg">
<g id="fa6-solid:pen-to-square" clip-path="url(#clip0_667_28935)">
<g id="Vector">
<path fill-rule="evenodd" clip-rule="evenodd" d="M18.6211 30.8906C18.9375 29.918 19.4883 29.0391 20.2031 28.3242L39.8086 8.70703L51.293 20.1914L31.6875 39.8086C30.9609 40.5234 30.082 41.0742 29.1211 41.3906L18.7148 44.8594C17.6953 45.1992 16.582 44.9414 15.832 44.1797C15.082 43.418 14.8125 42.3047 15.1523 41.2969L18.6211 30.8906ZM0 18.75C0 12.5391 5.03906 7.5 11.25 7.5H22.5C24.5742 7.5 26.25 9.17578 26.25 11.25C26.25 13.3242 24.5742 15 22.5 15H11.25C9.17578 15 7.5 16.6758 7.5 18.75V48.75C7.5 50.8242 9.17578 52.5 11.25 52.5H41.25C43.3242 52.5 45 50.8242 45 48.75V37.5C45 35.4258 46.6758 33.75 48.75 33.75C50.8242 33.75 52.5 35.4258 52.5 37.5V48.75C52.5 54.9609 47.4609 60 41.25 60H11.25C5.03906 60 0 54.9609 0 48.75V18.75Z" fill="#2E0493"/>
<path d="M55.2656 2.54297C52.6992 -0.0234375 48.5508 -0.0234375 45.9844 2.54297L42.457 6.05859L53.9297 17.5313L57.457 14.0039C60.0234 11.4375 60.0234 7.28906 57.457 4.72266L55.2656 2.54297Z" fill="#FFE800"/>
</g>
</g>
<defs>
<clipPath id="clip0_667_28935">
<rect width="60" height="60" fill="white"/>
</clipPath>
</defs>
</svg>
