<svg width="72" height="72" viewBox="0 0 72 72" fill="none" xmlns="http://www.w3.org/2000/svg">
<path d="M69.3814 31.0854H49.5851C49.2448 31.0854 48.9664 31.3704 48.9664 31.7187V35.5187C48.9664 35.867 49.2448 36.152 49.5851 36.152H69.3814C69.7216 36.152 70 35.867 70 35.5187V31.7187C70 31.3704 69.7216 31.0854 69.3814 31.0854ZM59.0192 41.8519H49.5851C49.2448 41.8519 48.9664 42.1369 48.9664 42.4853V46.2852C48.9664 46.6336 49.2448 46.9186 49.5851 46.9186H59.0192C59.3595 46.9186 59.6379 46.6336 59.6379 46.2852V42.4853C59.6379 42.1369 59.3595 41.8519 59.0192 41.8519ZM33.2144 24H29.8661C29.3866 24 29 24.3958 29 24.8867V44.5198C29 44.8048 29.1315 45.0661 29.3557 45.2323L40.87 53.8298C41.2567 54.1148 41.798 54.0356 42.0764 53.6398L44.0637 50.861V50.8531C44.3421 50.4573 44.2571 49.9031 43.8704 49.6181L34.0728 42.3665V24.8867C34.0805 24.3958 33.6862 24 33.2144 24Z" fill="#330099"/>
<path d="M69.1311 50.9045H63.6784C63.1501 50.9045 62.6501 51.1715 62.3671 51.6135C61.169 53.4643 59.7728 55.177 58.169 56.7424C55.4049 59.4403 52.188 61.5581 48.6125 63.0314C44.905 64.56 40.9711 65.3334 36.9146 65.3334C32.8486 65.3334 28.9147 64.56 25.2167 63.0314C21.6412 61.5581 18.4243 59.4403 15.6602 56.7424C12.8961 54.0444 10.7263 50.9045 9.21691 47.4147C7.65089 43.8052 6.85845 39.9654 6.85845 35.9968C6.85845 32.0282 7.65089 28.1976 9.21691 24.5789C10.7263 21.0891 12.8961 17.9492 15.6602 15.2512C18.4243 12.5533 21.6412 10.4354 25.2167 8.96217C28.9147 7.43365 32.8581 6.66018 36.9146 6.66018C40.9806 6.66018 44.9145 7.43365 48.6125 8.96217C52.188 10.4354 55.4049 12.5533 58.169 15.2512C59.7728 16.8166 61.169 18.5293 62.3671 20.3801C62.6501 20.8221 63.1501 21.0891 63.6784 21.0891H69.1311C69.782 21.0891 70.1971 20.4261 69.9047 19.8644C63.7538 7.92167 51.2823 0.159344 37.358 0.00280868C16.9715 -0.245807 0.0377997 16.0431 6.44501e-05 35.9231C-0.0376708 55.84 16.4998 72 36.9052 72C51.0087 72 63.6878 64.2101 69.9047 52.1292C70.1971 51.5675 69.7726 50.9045 69.1311 50.9045Z" fill="#330099"/>
</svg>
