<svg width="46" height="51" viewBox="0 0 46 51" fill="none" xmlns="http://www.w3.org/2000/svg">
<g id="Vector">
<path id="Vector_2" d="M8.83276 53.4167H14.4161V59H8.83276V53.4167ZM19.9994 53.4167H25.5828V59H19.9994V53.4167ZM31.1661 53.4167H36.7494V59H31.1661V53.4167ZM22.7911 0.375C35.1303 0.375 45.1244 5.37208 45.1244 11.5417C45.1244 17.7113 35.1303 22.7083 22.7911 22.7083C10.4519 22.7083 0.457764 17.7113 0.457764 11.5417C0.457764 5.37208 10.4519 0.375 22.7911 0.375ZM0.457764 17.125C0.457764 23.2946 10.4519 28.2917 22.7911 28.2917C35.1303 28.2917 45.1244 23.2946 45.1244 17.125V25.5C45.1244 31.6696 35.1303 36.6667 22.7911 36.6667C10.4519 36.6667 0.457764 31.6696 0.457764 25.5V17.125ZM0.457764 31.0833C0.457764 37.2529 10.4519 42.25 22.7911 42.25C35.1303 42.25 45.1244 37.2529 45.1244 31.0833V39.4583C45.1244 42.7804 42.1932 45.7954 37.559 47.8333H8.02318C3.38901 45.7954 0.457764 42.7804 0.457764 39.4583V31.0833Z" fill="#330099"/>
</g>
</svg>
