<svg width="62" height="59" viewBox="0 0 62 59" fill="none" xmlns="http://www.w3.org/2000/svg">
<g id="Icon">
<path id="Vector" d="M55.8221 32.6103L53.2631 35.053L48.0171 30.0455L50.5761 27.6028C50.8392 27.3566 51.1929 27.2187 51.5614 27.2187C51.9298 27.2187 52.2835 27.3566 52.5466 27.6028L55.8221 30.7294C56.3595 31.2424 56.3595 32.0974 55.8221 32.6103ZM30.9996 46.2651L46.5073 31.4622L51.7533 36.4698L36.2712 51.297H30.9996V46.2651ZM30.9996 34.1981C19.6887 34.1981 10.5273 38.5705 10.5273 43.9689V48.8543H25.8815V44.2376L36.1176 34.4668C34.4287 34.2714 32.7141 34.1981 30.9996 34.1981ZM30.9996 9.771C28.2848 9.771 25.6812 10.8004 23.7615 12.6328C21.8419 14.4652 20.7635 16.9504 20.7635 19.5418C20.7635 22.1332 21.8419 24.6185 23.7615 26.4509C25.6812 28.2832 28.2848 29.3127 30.9996 29.3127C33.7143 29.3127 36.3179 28.2832 38.2376 26.4509C40.1572 24.6185 41.2357 22.1332 41.2357 19.5418C41.2357 16.9504 40.1572 14.4652 38.2376 12.6328C36.3179 10.8004 33.7143 9.771 30.9996 9.771Z" fill="#330099"/>
</g>
</svg>
